<svg width="18" height="18" viewBox="0 0 18 18" fill="none" xmlns="http://www.w3.org/2000/svg">
<path d="M2.25 15.75V2.7C2.25 2.45147 2.45147 2.25 2.7 2.25H15.75" stroke="#791D00"/>
<path d="M12.75 15.75H15.3C15.5485 15.75 15.75 15.5485 15.75 15.3V12.75" stroke="#791D00" stroke-linecap="round" stroke-linejoin="round"/>
<path d="M15.75 5.25V6.75" stroke="#791D00" stroke-linecap="round" stroke-linejoin="round"/>
<path d="M15.75 9V10.5" stroke="#791D00" stroke-linecap="round" stroke-linejoin="round"/>
<path d="M5.25 15.75H6.75" stroke="#791D00" stroke-linecap="round" stroke-linejoin="round"/>
<path d="M9 15.75H10.5" stroke="#791D00" stroke-linecap="round" stroke-linejoin="round"/>
<path d="M2.25 3C2.66421 3 3 2.66421 3 2.25C3 1.83579 2.66421 1.5 2.25 1.5C1.83579 1.5 1.5 1.83579 1.5 2.25C1.5 2.66421 1.83579 3 2.25 3Z" fill="#791D00" stroke="#791D00" stroke-linecap="round" stroke-linejoin="round"/>
<path d="M2.25 16.5C2.66421 16.5 3 16.1642 3 15.75C3 15.3358 2.66421 15 2.25 15C1.83579 15 1.5 15.3358 1.5 15.75C1.5 16.1642 1.83579 16.5 2.25 16.5Z" fill="#791D00" stroke="#791D00" stroke-linecap="round" stroke-linejoin="round"/>
<path d="M15.75 3C16.1642 3 16.5 2.66421 16.5 2.25C16.5 1.83579 16.1642 1.5 15.75 1.5C15.3358 1.5 15 1.83579 15 2.25C15 2.66421 15.3358 3 15.75 3Z" fill="#791D00" stroke="#791D00" stroke-linecap="round" stroke-linejoin="round"/>
</svg>
